<?xml version="1.0" encoding="UTF-8" standalone="no"?>
<!-- Generator: Adobe Illustrator 25.0.0, SVG Export Plug-In . SVG Version: 6.00 Build 0)  -->

<svg
   version="1.1"
   id="Capa_1"
   x="0px"
   y="0px"
   viewBox="0 0 512 512"
   style="enable-background:new 0 0 512 512;"
   xml:space="preserve"
   width="512"
   height="512"
   sodipodi:docname="home.svg"
   inkscape:version="1.2.2 (b0a8486541, 2022-12-01)"
   xmlns:inkscape="http://www.inkscape.org/namespaces/inkscape"
   xmlns:sodipodi="http://sodipodi.sourceforge.net/DTD/sodipodi-0.dtd"
   xmlns="http://www.w3.org/2000/svg"
   xmlns:svg="http://www.w3.org/2000/svg"><defs
   id="defs367" /><sodipodi:namedview
   id="namedview365"
   pagecolor="#ffffff"
   bordercolor="#999999"
   borderopacity="1"
   inkscape:showpageshadow="0"
   inkscape:pageopacity="0"
   inkscape:pagecheckerboard="0"
   inkscape:deskcolor="#d1d1d1"
   showgrid="false"
   inkscape:zoom="1.0429688"
   inkscape:cx="256"
   inkscape:cy="256"
   inkscape:window-width="1366"
   inkscape:window-height="704"
   inkscape:window-x="0"
   inkscape:window-y="0"
   inkscape:window-maximized="1"
   inkscape:current-layer="Capa_1" />
<g
   id="g362"
   style="fill:#ffffff">
	<path
   d="M256,319.841c-35.346,0-64,28.654-64,64v128h128v-128C320,348.495,291.346,319.841,256,319.841z"
   id="path354"
   style="fill:#ffffff" />
	<g
   id="g360"
   style="fill:#ffffff">
		<path
   d="M362.667,383.841v128H448c35.346,0,64-28.654,64-64V253.26c0.005-11.083-4.302-21.733-12.011-29.696l-181.29-195.99    c-31.988-34.61-85.976-36.735-120.586-4.747c-1.644,1.52-3.228,3.103-4.747,4.747L12.395,223.5    C4.453,231.496-0.003,242.31,0,253.58v194.261c0,35.346,28.654,64,64,64h85.333v-128c0.399-58.172,47.366-105.676,104.073-107.044    C312.01,275.383,362.22,323.696,362.667,383.841z"
   id="path356"
   style="fill:#ffffff" />
		<path
   d="M256,319.841c-35.346,0-64,28.654-64,64v128h128v-128C320,348.495,291.346,319.841,256,319.841z"
   id="path358"
   style="fill:#ffffff" />
	</g>
</g>















</svg>
