<?xml version="1.0" encoding="UTF-8" standalone="no"?>
<!-- Created with Inkscape (http://www.inkscape.org/) -->

<svg
   width="200.29158"
   height="116.25622"
   viewBox="0 0 200.29158 116.25622"
   version="1.1"
   id="svg5"
   xml:space="preserve"
   inkscape:version="1.2.2 (b0a8486541, 2022-12-01)"
   sodipodi:docname="vmfavicon_green.svg"
   inkscape:export-filename="vmfavicon_blank.png"
   inkscape:export-xdpi="96"
   inkscape:export-ydpi="96"
   xmlns:inkscape="http://www.inkscape.org/namespaces/inkscape"
   xmlns:sodipodi="http://sodipodi.sourceforge.net/DTD/sodipodi-0.dtd"
   xmlns="http://www.w3.org/2000/svg"
   xmlns:svg="http://www.w3.org/2000/svg"><sodipodi:namedview
     id="namedview7"
     pagecolor="#ffffff"
     bordercolor="#999999"
     borderopacity="1"
     inkscape:showpageshadow="0"
     inkscape:pageopacity="0"
     inkscape:pagecheckerboard="0"
     inkscape:deskcolor="#d1d1d1"
     inkscape:document-units="px"
     showgrid="false"
     inkscape:zoom="2.8284271"
     inkscape:cx="166.52365"
     inkscape:cy="56.568543"
     inkscape:window-width="1366"
     inkscape:window-height="704"
     inkscape:window-x="0"
     inkscape:window-y="0"
     inkscape:window-maximized="1"
     inkscape:current-layer="layer1" /><defs
     id="defs2" /><g
     inkscape:label="Layer 1"
     inkscape:groupmode="layer"
     id="layer1"
     transform="translate(-295.91232,-448.71288)"><path
       style="fill:#22b75f;fill-opacity:1;stroke-width:0.89307"
       d="m 327.59918,524.74393 c 0,-0.51136 -2.5877,-8.3279 -5.61912,-16.75404 -3.03143,-8.42613 -8.95341,-24.89092 -13.15997,-36.58841 -4.20655,-11.6975 -7.64909,-21.5975 -7.65007,-22 -8e-4,-0.40251 3.31849,-0.45949 7.41676,-0.46427 l 7.42764,-0.009 9.87711,30.05579 c 5.36967,16.33977 10.43826,31.21278 11.17702,33.07967 l 1.34321,3.39435 7.5707,-13.39435 c 4.1639,-7.36689 12.29916,-22.28185 18.07836,-33.14435 l 10.50764,-19.75 h 7.63495 7.63494 l -3.03798,5.25 c -1.67089,2.8875 -7.36833,12.675 -12.66097,21.75 -5.29264,9.075 -13.85796,23.8125 -19.03406,32.75 l -9.41107,16.25 H 336.593 c -5.07739,0 -8.99382,0.093 -8.99382,-0.42572 z"
       id="path913"
       sodipodi:nodetypes="ssscscsscsscccssscss" /><path
       style="fill:#22b75f;fill-opacity:1;stroke-width:0.577423"
       d="m 295.91632,542.055 -0.004,-5.16421 100.17085,-0.007 99.92827,-0.0155 v 4.95738 4.95739 H 395.96793 295.92457 Z"
       id="path901"
       sodipodi:nodetypes="ccccccccc" /><path
       style="fill:#22b75f;fill-opacity:1;stroke-width:0.577423"
       d="m 296.1537,559.9691 v -5 H 396.17879 496.2039 v 5 5 H 396.17879 296.1537 Z"
       id="path899" /><path
       style="fill:#22b75f;fill-opacity:1;stroke-width:0.89307"
       d="m 391.43927,522.96237 c 1.68895,-8.95528 11.70025,-58.12885 13.28431,-65.25 l 1.89078,-8.5 h 9.08968 9.08968 l 4.24717,16.5 c 2.33595,9.075 5.94109,23.475 8.01143,32 2.07034,8.525 4.06348,15.725 4.42919,16 0.5517,0.41485 9.35482,-17.84046 28.32608,-58.74074 l 2.89473,-6.24075 9.09833,-0.009 9.09835,-0.009 -0.53233,22.25 c -0.29278,12.2375 -0.76388,29.5625 -1.04689,38.5 l -0.51455,16.25 h -6.25692 -6.25691 l 0.008,-3.25 c 0.005,-1.7875 0.53734,-14.05 1.18384,-27.25 1.42026,-28.99818 1.48498,-34.83847 0.37649,-33.97951 -0.45322,0.35119 -3.30044,6.79024 -6.32719,14.30902 -3.02673,7.51826 -9.23482,21.76998 -13.79574,31.66998 l -8.26136,18.52388 -8.71838,0.0221 -8.77719,0.0154 -5.7381,-24.28068 c -3.15595,-13.35437 -6.32169,-27.88068 -7.03498,-32.28068 -2.17709,-13.42966 -1.76813,-14.39527 -8.25883,19.5 -2.15908,11.275 -4.55215,24.2125 -5.31791,28.75 l -1.39231,8.25 h -6.65874 -6.65875 z"
       id="path891"
       sodipodi:nodetypes="cscccsssscccssccccsscscccsssscccc" /></g></svg>
