<?xml version="1.0" encoding="UTF-8" standalone="no"?>
<!-- Created with Inkscape (http://www.inkscape.org/) -->

<svg
   width="487.31937"
   height="230.96768"
   viewBox="0 0 487.31937 230.96768"
   version="1.1"
   id="svg5"
   xml:space="preserve"
   inkscape:version="1.2.2 (b0a8486541, 2022-12-01)"
   sodipodi:docname="vmlogo_white.svg"
   inkscape:export-filename="vmlogo_black.png"
   inkscape:export-xdpi="96"
   inkscape:export-ydpi="96"
   xmlns:inkscape="http://www.inkscape.org/namespaces/inkscape"
   xmlns:sodipodi="http://sodipodi.sourceforge.net/DTD/sodipodi-0.dtd"
   xmlns="http://www.w3.org/2000/svg"
   xmlns:svg="http://www.w3.org/2000/svg"><sodipodi:namedview
     id="namedview7"
     pagecolor="#ffffff"
     bordercolor="#999999"
     borderopacity="1"
     inkscape:showpageshadow="0"
     inkscape:pageopacity="0"
     inkscape:pagecheckerboard="0"
     inkscape:deskcolor="#d1d1d1"
     inkscape:document-units="px"
     showgrid="false"
     inkscape:zoom="1"
     inkscape:cx="164"
     inkscape:cy="141"
     inkscape:window-width="1366"
     inkscape:window-height="704"
     inkscape:window-x="0"
     inkscape:window-y="0"
     inkscape:window-maximized="1"
     inkscape:current-layer="layer1" /><defs
     id="defs2" /><g
     inkscape:label="Layer 1"
     inkscape:groupmode="layer"
     id="layer1"
     transform="translate(-297.50513,-440.70545)"><path
       style="fill:#ffffff;fill-opacity:1;stroke-width:0.89307"
       d="m 659.92493,521.95545 c 0.24549,-1.5125 1.36369,-11.3 2.485,-21.75 2.53174,-23.59443 4.4038,-39.87576 4.61309,-40.11917 0.33506,-0.38968 3.50222,-0.60662 7.24085,-0.49598 l 3.8912,0.11515 -0.53262,5.03454 -0.5327,5.03454 3.30531,-3.00204 c 5.81599,-5.2824 11.29045,-7.24832 21.80231,-7.82937 l 9.49265,-0.52472 -0.43947,6.07562 c -0.24166,3.34159 -0.64691,6.49661 -0.90054,7.01115 -0.28537,0.57896 -2.06396,0.56357 -4.6666,-0.0404 -10.49878,-2.43637 -22.94189,1.05055 -27.62788,7.74215 -2.45692,3.50847 -2.68909,4.8675 -5.42541,31.75961 l -1.39799,13.73891 h -5.87676 -5.87676 z"
       id="path919" /><path
       style="fill:#ffffff;fill-opacity:1;stroke-width:0.89307"
       d="m 497.69792,523.23036 c 0,-1.87273 6.26056,-58.2556 6.80376,-61.27491 0.36982,-2.05558 0.86094,-2.25 5.68363,-2.25 h 5.27885 l -0.52117,5.55979 -0.52117,5.55979 3.00751,-3.03032 c 9.90062,-9.97569 31.46222,-13.27552 42.24281,-6.46492 2.50355,1.58161 5.28577,4.1454 6.1827,5.6973 2.39085,4.13674 2.45938,16.29673 0.21798,38.67836 l -1.85268,18.5 -5.84049,0.29623 -5.84051,0.29623 0.49613,-3.3158 c 0.27288,-1.82369 1.18714,-10.957 2.03169,-20.29623 2.23296,-24.69217 1.10681,-29.23338 -7.82679,-31.56153 -11.78583,-3.07147 -29.43474,3.88261 -33.17425,13.07143 -0.56174,1.38032 -2.02039,11.39717 -3.24145,22.25967 l -2.22008,19.75 h -5.45324 c -4.27466,0 -5.45323,-0.3188 -5.45323,-1.47509 z"
       id="path917" /><path
       style="fill:#ffffff;fill-opacity:1;stroke-width:0.89307"
       d="m 468.98526,523.09148 c 0,-0.88769 0.88097,-8.20019 1.95771,-16.25 1.64481,-12.29666 7.61318,-63.68319 7.61318,-65.54793 0,-0.32345 2.5523,-0.5881 5.67178,-0.5881 h 5.67178 l -0.47695,3.25 c -0.87938,5.9922 -7.67632,74.93166 -7.67632,77.85876 v 2.89124 h -6.38059 c -5.34017,0 -6.38059,-0.26317 -6.38059,-1.61397 z"
       id="path915" /><path
       style="fill:#ffffff;fill-opacity:1;stroke-width:0.89307"
       d="m 323.93429,524.27973 c 0,-0.51136 -2.5877,-8.3279 -5.61912,-16.75404 -3.03143,-8.42613 -8.95341,-24.89092 -13.15997,-36.58841 -4.20655,-11.6975 -7.64909,-21.5975 -7.65007,-22 -8e-4,-0.40251 3.31849,-0.45949 7.41676,-0.46427 l 7.42764,-0.009 9.87711,30.05579 c 5.36967,16.33977 10.43826,31.21278 11.17702,33.07967 l 1.34321,3.39435 7.5707,-13.39435 c 4.1639,-7.36689 12.29916,-22.28185 18.07836,-33.14435 l 10.50764,-19.75 h 7.63495 7.63494 l -3.03798,5.25 c -1.67089,2.8875 -7.36833,12.675 -12.66097,21.75 -5.29264,9.075 -13.85796,23.8125 -19.03406,32.75 l -9.41107,16.25 h -9.10127 c -5.07739,0 -8.99382,0.093 -8.99382,-0.42572 z"
       id="path913"
       sodipodi:nodetypes="ssscscsscsscccssscss" /><path
       id="path909"
       style="fill:#ffffff;fill-opacity:1;stroke-width:0.89307"
       d="m 754.83363,457.88082 c -1.53686,-0.003 -3.10711,0.055 -4.70289,0.17578 -15.58872,1.17989 -25.25319,7.1865 -29.19712,18.14844 l -1.43936,4 5.74657,0.30469 c 4.79486,0.2546 5.88023,0.0176 6.54571,-1.43946 3.327,-7.28477 10.32493,-10.65284 22.33207,-10.74414 7.32827,-0.0557 9.38494,0.28415 12.49325,2.0625 4.38641,2.50957 6.43778,5.98139 6.55973,11.10352 l 0.0888,3.71289 -17.94541,0.70898 c -9.86996,0.39017 -20.27831,1.19754 -23.12964,1.79297 -11.9521,2.49592 -17.73883,9.31383 -17.86596,21.05078 -0.0475,4.37415 0.34227,6.5307 1.56399,8.63868 2.1706,3.74506 7.73671,7.1274 13.55253,8.23632 5.72322,1.09128 14.20206,0.46193 20.6746,-1.5332 5.43259,-1.67455 10.30162,-4.96024 15.77233,-10.64453 l 3.78848,-3.93555 v 7.59375 7.5918 h 5.18423 c 2.85132,0 5.18404,-0.3375 5.19202,-0.75 0.005,-0.4125 0.89593,-8.85001 1.97991,-18.75 1.08398,-9.89999 1.96745,-20.475 1.96745,-23.5 -0.004,-6.15043 -1.90512,-12.29869 -4.85709,-15.70117 -4.44569,-5.12422 -13.54623,-8.10501 -24.30419,-8.12305 z m 14.05256,35.58398 c 3.27973,0.0412 3.4947,0.44149 3.30089,1.80469 -0.95047,6.68488 -9.92358,16.06812 -18.06847,18.89258 -8.93114,3.09708 -20.98116,2.56514 -24.91327,-1.09961 -3.97782,-3.70735 -3.05213,-11.9209 1.65745,-14.70508 4.63726,-2.7414 16.39408,-4.43266 33.62428,-4.83593 1.87268,-0.0438 3.30588,-0.0704 4.39912,-0.0566 z" /><path
       id="path905"
       style="fill:#ffffff;fill-opacity:1;stroke-width:0.89307"
       d="m 617.64472,458.39059 c -4.87894,0.0539 -9.64967,0.61809 -13.05404,1.71875 -15.86047,5.12778 -24.12341,17.38746 -24.09701,35.75195 0.0131,9.07602 1.70648,14.72748 6.04411,20.16601 3.61397,4.5312 6.6272,6.52927 13.25032,8.78907 3.34724,1.14207 8.17696,1.78932 13.63041,1.82812 14.90411,0.10617 26.12079,-5.21511 31.83285,-15.10156 3.57711,-6.1914 3.28939,-6.83789 -3.03608,-6.83789 -5.1347,0 -5.56863,0.18474 -8.0801,3.43359 -3.81373,4.93342 -9.57587,7.72305 -17.18055,8.31641 -14.43282,1.12613 -24.3447,-5.75547 -24.3447,-16.89844 v -3.85156 h 28.71266 28.71265 l -0.008,-7.75 c -0.0141,-13.99403 -5.2846,-23.15552 -15.69444,-27.28516 -3.96232,-1.57186 -10.41538,-2.34857 -16.68829,-2.27929 z m 0.86611,10.47265 c 13.16067,-0.0738 20.35838,5.32388 20.35838,15.37696 v 2.40429 l -22.40995,0.28125 c -12.3249,0.15424 -22.56475,-0.0375 -22.75577,-0.42578 -0.62483,-1.2701 1.82262,-7.231 4.17791,-10.17578 3.94817,-4.93635 8.55287,-6.83124 17.91893,-7.37305 0.93003,-0.0538 1.83313,-0.083 2.7105,-0.0879 z" /><path
       style="fill:#ffffff;fill-opacity:1;stroke-width:0.89307"
       d="m 401.79677,525.3043 c -7.38631,-1.9898 -11.7181,-8.99813 -11.75379,-19.01626 -0.0142,-3.98944 2.71671,-40.54834 3.39022,-45.38487 0.12272,-0.88127 2.04024,-1.73148 5.96376,-1.72693 4.83387,0.006 5.78241,-0.17555 5.78241,1.14356 0,0.86251 -0.91517,11.40608 -2.0337,23.43017 -1.90001,20.42476 -1.94896,22.06743 -0.74468,24.98731 3.52948,8.55753 21.11666,9.60584 33.28833,1.9842 3.47241,-2.17435 8.58749,-7.44645 8.55413,-8.81672 -0.009,-0.38462 1.13064,-10.03681 2.53333,-21.44931 l 2.55036,-20.75 h 5.70057 5.70057 l -1.45283,11.25 c -1.29245,10.00809 -6.24166,52.30532 -6.24166,53.34287 0,0.22392 -2.38169,0.40713 -5.29263,0.40713 h -5.29265 l 0.49195,-4.5 c 0.51505,-4.71151 -0.62226,-6.09036 -2.58177,-3.13005 -1.6293,2.46145 -10.48125,6.8018 -16.71482,8.19574 -7.45133,1.66624 -15.73828,1.67882 -21.8471,0.0332 z"
       id="path903"
       sodipodi:nodetypes="sssssssscscccssscsssss" /><path
       style="fill:#ffffff;fill-opacity:1;stroke-width:0.89307"
       d="m 306.17203,547.97725 -0.009,-5.16421 239.62077,-0.007 239.04052,-0.0155 v 4.95738 4.95739 H 545.50864 306.19283 Z"
       id="path901"
       sodipodi:nodetypes="ccccccccc" /><path
       style="fill:#ffffff;fill-opacity:1;stroke-width:0.89307"
       d="m 306.28023,574.70545 v -5 h 239.27211 239.27215 v 5 5 H 545.55234 306.28023 Z"
       id="path899" /><path
       style="fill:#ffffff;fill-opacity:1;stroke-width:0.89307"
       d="m 616.23918,592.45545 c 0.28556,-2.3375 0.64148,-4.42843 0.79093,-4.64652 0.26965,-0.39348 12.47253,-0.17971 12.79464,0.22414 0.0924,0.11587 -0.0357,2.11455 -0.2846,4.44152 l -0.4526,4.23086 h -6.68379 -6.68379 z"
       id="path897" /><path
       style="fill:#ffffff;fill-opacity:1;stroke-width:0.89307"
       d="m 608.54149,668.49929 c -0.024,-1.62221 6.473,-60.84102 6.86183,-62.54381 0.19585,-0.85767 2.17076,-1.25 6.29228,-1.25 4.26973,0 6.00901,0.36148 6.01436,1.25 0.004,0.6875 -1.24297,11.15 -2.77135,23.25 -1.52839,12.1 -3.23659,26.05 -3.79601,31 l -1.01712,9 -5.78241,0.29381 c -4.31205,0.2191 -5.78728,-0.0352 -5.80158,-1 z"
       id="path895" /><path
       style="fill:#ffffff;fill-opacity:1;stroke-width:0.89307"
       d="m 551.93293,668.44779 c 0,-0.7399 1.61352,-15.04711 3.58561,-31.7938 1.97208,-16.7467 3.58717,-31.01104 3.58908,-31.69854 0.002,-0.88175 1.66512,-1.25 5.64388,-1.25 h 5.6404 l -0.56354,5.65531 -0.56356,5.65532 3.13595,-3.15974 c 4.63492,-4.67006 11.3412,-7.25345 21.98255,-8.4681 5.14307,-0.58705 9.57438,-0.78736 9.84733,-0.44513 0.27295,0.34223 0.19242,3.46626 -0.17896,6.94229 l -0.67523,6.32005 -9.57089,-0.29336 c -10.73364,-0.329 -16.10978,1.00452 -21.25248,5.27156 -1.72548,1.43168 -3.49349,3.59727 -3.9289,4.81243 -0.43541,1.21515 -1.77029,11.43437 -2.96638,22.70937 l -2.17472,20.5 -5.77507,0.29381 c -4.4226,0.225 -5.77507,-0.0212 -5.77507,-1.05147 z"
       id="path893" /><path
       style="fill:#ffffff;fill-opacity:1;stroke-width:0.89307"
       d="m 305.17334,666.95545 c 1.68895,-8.95528 11.70025,-58.12885 13.28431,-65.25 l 1.89078,-8.5 h 9.08968 9.08968 l 4.24717,16.5 c 2.33595,9.075 5.94109,23.475 8.01143,32 2.07034,8.525 4.06348,15.725 4.42919,16 0.5517,0.41485 9.35482,-17.84046 28.32608,-58.74074 l 2.89473,-6.24075 9.09833,-0.009 9.09835,-0.009 -0.53233,22.25 c -0.29278,12.2375 -0.76388,29.5625 -1.04689,38.5 l -0.51455,16.25 h -6.25692 -6.25691 l 0.008,-3.25 c 0.005,-1.7875 0.53734,-14.05 1.18384,-27.25 1.42026,-28.99818 1.48498,-34.83847 0.37649,-33.97951 -0.45322,0.35119 -3.30044,6.79024 -6.32719,14.30902 -3.02673,7.51826 -9.23482,21.76998 -13.79574,31.66998 l -8.26136,18.52388 -8.71838,0.0221 -8.77719,0.0154 -5.7381,-24.28068 c -3.15595,-13.35437 -6.32169,-27.88068 -7.03498,-32.28068 -2.17709,-13.42966 -1.76813,-14.39527 -8.25883,19.5 -2.15908,11.275 -4.55215,24.2125 -5.31791,28.75 l -1.39231,8.25 h -6.65874 -6.65875 z"
       id="path891"
       sodipodi:nodetypes="cscccsssscccssccccsscscccsssscccc" /><path
       style="fill:#ffffff;fill-opacity:1;stroke-width:0.89307"
       d="m 732.47854,670.27729 c -10.2852,-2.93997 -16.90657,-10.21968 -18.93895,-20.82184 l -0.52712,-2.75 h 6.33393 6.33394 l 0.92414,3.51104 c 1.92327,7.30648 8.44623,10.68665 20.73405,10.74427 9.23718,0.0433 15.91479,-2.11017 18.29179,-5.89903 1.88021,-2.99683 2.00654,-4.27411 0.76201,-7.69896 -1.3621,-3.74822 -4.01172,-4.71073 -18.65501,-6.77676 -20.44557,-2.88467 -26.04063,-5.57073 -28.2633,-13.56865 -2.42535,-8.72678 2.09076,-17.25861 11.28231,-21.31502 6.32197,-2.78996 24.22304,-3.92991 31.91555,-2.03239 5.73073,1.4136 11.38696,4.76729 14.02677,8.31679 1.89528,2.54836 4.3877,11.07222 3.54618,12.12737 -0.25945,0.32523 -3.03461,0.59134 -6.16708,0.59134 h -5.69532 l -1.38427,-3.93376 c -2.05096,-5.8283 -6.2521,-7.57825 -18.06448,-7.52451 -13.2335,0.0602 -18.58451,3.46311 -17.41526,11.07503 0.48516,3.15898 4.77403,5.26937 13.05636,6.42451 25.38286,3.5402 30.76226,5.30342 34.17938,11.20312 1.95174,3.36957 2.05,10.9998 0.19947,15.4866 -1.94887,4.72519 -6.74077,9.10816 -12.47333,11.40899 -6.78273,2.72227 -26.57197,3.55563 -34.00176,1.43186 z"
       id="path889" /><path
       style="fill:#ffffff;fill-opacity:1;stroke-width:0.89307"
       d="m 658.13446,670.16953 c -14.50133,-3.94607 -21.83422,-15.49556 -20.57477,-32.40563 1.60472,-21.54688 16.53266,-35.02372 38.79478,-35.02372 17.49175,0 29.14095,8.09211 30.12452,20.9259 l 0.38618,5.03937 h -5.28568 c -4.79669,0 -5.28568,-0.18963 -5.28568,-2.04966 0,-3.73853 -2.38195,-7.90218 -5.79892,-10.13639 -4.72602,-3.09023 -17.74721,-3.78151 -24.9816,-1.32625 -11.04448,3.74837 -17.5329,16.79097 -15.4092,30.97442 1.53174,10.22963 8.68613,15.0135 22.26251,14.88608 9.1461,-0.0858 15.52741,-2.68883 18.76516,-7.65452 1.14531,-1.75652 2.59131,-3.97972 3.21342,-4.94043 0.90692,-1.40069 2.08741,-1.67334 5.95867,-1.37626 2.65521,0.20377 5.02544,0.61839 5.2671,0.92139 2.00478,2.51364 -7.17641,14.5826 -14.21013,18.67961 -8.51107,4.95755 -22.44604,6.4196 -33.22636,3.48609 z"
       id="path887" /><path
       style="fill:#ffffff;fill-opacity:1;stroke-width:0.89307"
       d="m 518.44437,670.56251 c -6.06262,-1.2592 -10.41999,-4.1665 -12.77071,-8.52079 -1.73781,-3.21897 -1.98566,-4.7302 -1.92949,-11.76484 0.0355,-4.43928 0.843,-13.54389 1.79454,-20.23245 0.95155,-6.68855 1.73009,-12.87605 1.73009,-13.75 0,-1.27919 -0.95332,-1.58898 -4.88979,-1.58898 h -4.8898 l 0.49436,-3.75 c 0.2719,-2.0625 0.49832,-4.25678 0.50314,-4.87617 0.005,-0.64068 1.89453,-1.32224 4.38308,-1.58099 4.98285,-0.51809 6.72715,-2.06928 8.79633,-7.82248 1.40934,-3.91858 1.48434,-3.97036 5.75088,-3.97036 h 4.32291 l -0.54808,5.5 -0.54807,5.5 h 13.75501 13.755 l -0.49436,3.75 c -0.2719,2.0625 -0.49831,4.52687 -0.50314,5.47639 -0.008,1.55738 -1.3556,1.75317 -13.76693,2 l -13.75814,0.27361 -2.34769,17.7486 c -2.57694,19.48184 -2.46207,21.53424 1.40766,25.14925 1.98281,1.85231 3.57061,2.14326 13.35936,2.44805 l 11.10909,0.34589 -0.0122,3.15411 c -0.006,1.73475 -0.28383,3.68971 -0.6158,4.34435 -0.62985,1.24205 -12.02589,3.39535 -16.89769,3.19285 -1.54683,-0.0643 -4.78214,-0.52601 -7.18956,-1.02604 z"
       id="path885" /><path
       id="path260"
       style="fill:#ffffff;fill-opacity:1;stroke-width:0.89307"
       d="m 456.31207,602.70504 c -23.84304,0 -38.40684,14.34889 -38.35364,37.78711 0.0353,15.54962 6.31921,24.66817 20.12783,29.20508 13.98659,4.59537 32.39394,0.7756 41.1872,-8.54688 2.79583,-2.96408 7.25917,-10.09356 7.25917,-11.5957 1e-5,-0.46748 -2.66872,-0.84961 -5.92884,-0.84961 -5.65576,0 -6.00364,0.13542 -7.60498,2.95508 -0.92705,1.63235 -4.06756,4.42999 -7.01616,6.25 -5.06473,3.12617 -5.79142,3.29492 -14.18498,3.29492 -8.27267,0 -9.15229,-0.19499 -13.56031,-3.02148 -5.25692,-3.37084 -8.29719,-8.57113 -8.32,-14.22852 l -0.0124,-3.25 h 28.61919 28.61919 l 0.48135,-2.25 c 0.8739,-4.0886 0.52078,-12.42971 -0.71034,-16.80469 -1.81024,-6.43296 -4.49693,-10.22076 -9.67993,-13.64648 -6.00531,-3.96923 -11.25196,-5.29883 -20.92229,-5.29883 z m -1.14184,10.30664 c 1.97381,0.0111 4.00492,0.2002 6.07059,0.57422 9.88634,1.79006 14.65146,6.16815 15.51686,14.25781 l 0.4128,3.86133 H 453.8508 c -20.93707,0 -23.26987,-0.16187 -22.83522,-1.58203 0.26627,-0.86998 0.48446,-2.00418 0.48446,-2.52149 10e-6,-0.51731 1.46792,-2.93846 3.26351,-5.38086 4.39022,-5.97164 11.85348,-9.25708 20.40668,-9.20898 z" /></g></svg>
